<?xml version="1.0" encoding="UTF-8" standalone="no" ?>
<!DOCTYPE svg PUBLIC "-//W3C//DTD SVG 1.1//EN" "http://www.w3.org/Graphics/SVG/1.1/DTD/svg11.dtd">
<svg xmlns="http://www.w3.org/2000/svg" xmlns:xlink="http://www.w3.org/1999/xlink" version="1.1" width="1080" height="1080" viewBox="0 0 1080 1080" xml:space="preserve">
<desc>Created with Fabric.js 5.2.4</desc>
<defs>
</defs>
<rect x="0" y="0" width="100%" height="100%" fill="transparent"></rect>
<g transform="matrix(1 0 0 1 540 540)" id="8305c75b-6ee0-4dbe-88bd-2836b140ec83"  >
<rect style="stroke: none; stroke-width: 1; stroke-dasharray: none; stroke-linecap: butt; stroke-dashoffset: 0; stroke-linejoin: miter; stroke-miterlimit: 4; fill: rgb(255,255,255); fill-rule: nonzero; opacity: 1; visibility: hidden;" vector-effect="non-scaling-stroke"  x="-540" y="-540" rx="0" ry="0" width="1080" height="1080" />
</g>
<g transform="matrix(1 0 0 1 540 540)" id="f63ffbf1-3e0b-4bed-886f-f8a81839c6d8"  >
</g>
<g transform="matrix(67.5 0 0 67.5 540 540)"  >
<path style="stroke: none; stroke-width: 1; stroke-dasharray: none; stroke-linecap: butt; stroke-dashoffset: 0; stroke-linejoin: miter; stroke-miterlimit: 4; fill: rgb(239,239,239); fill-rule: nonzero; opacity: 1;"  transform=" translate(-7.86, -7.85)" d="M 13.4993 0.502385 L 13.6483 0.353385 C 13.7604 0.241302 13.8936 0.152405 14.0401 0.0917714 C 14.1866 0.0311376 14.3436 -0.0000463775 14.5021 5.17695e-8 C 14.6607 0.0000464811 14.8177 0.0313224 14.9642 0.0920421 C 15.1106 0.152762 15.2437 0.241736 15.3558 0.353885 C 15.4679 0.466034 15.5568 0.599161 15.6174 0.745665 C 15.678 0.89217 15.7092 1.04918 15.7092 1.20774 C 15.7091 1.36629 15.6778 1.52329 15.6171 1.66976 C 15.5564 1.81623 15.4674 1.9493 15.3553 2.06138 L 15.2063 2.20938 C 15.4612 2.49525 15.5971 2.86778 15.5861 3.25061 C 15.5751 3.63345 15.4181 3.99759 15.1473 4.26838 L 4.85528 14.5614 C 4.79094 14.6254 4.7104 14.6707 4.62228 14.6924 L 0.622281 15.6924 C 0.538573 15.7132 0.450897 15.7121 0.367774 15.689 C 0.284651 15.6659 0.208909 15.6218 0.147911 15.5608 C 0.0869137 15.4998 0.042735 15.424 0.0196696 15.3409 C -0.00339583 15.2578 -0.00456322 15.1701 0.0162809 15.0864 L 1.01628 11.0864 C 1.03816 10.9986 1.08343 10.9184 1.14728 10.8544 L 10.7893 1.21238 C 10.6928 1.14451 10.5755 1.11291 10.4581 1.12316 C 10.3406 1.13341 10.2305 1.18484 10.1473 1.26838 L 6.85528 4.56139 C 6.80879 4.60787 6.7536 4.64475 6.69286 4.66991 C 6.63212 4.69507 6.56702 4.70802 6.50128 4.70802 C 6.43554 4.70802 6.37044 4.69507 6.3097 4.66991 C 6.24896 4.64475 6.19377 4.60787 6.14728 4.56139 C 6.10079 4.5149 6.06392 4.45971 6.03876 4.39897 C 6.0136 4.33823 6.00065 4.27313 6.00065 4.20739 C 6.00065 4.14164 6.0136 4.07654 6.03876 4.0158 C 6.06392 3.95506 6.10079 3.89987 6.14728 3.85338 L 9.44128 0.561385 C 9.71226 0.2904 10.0767 0.133406 10.4597 0.12262 C 10.8428 0.111835 11.2155 0.248076 11.5013 0.503385 C 11.776 0.257824 12.1316 0.121997 12.5001 0.121812 C 12.8686 0.121628 13.2243 0.257099 13.4993 0.502385 Z M 12.8553 1.26838 C 12.7615 1.17465 12.6344 1.12199 12.5018 1.12199 C 12.3692 1.12199 12.242 1.17465 12.1483 1.26838 L 1.95128 11.4634 L 1.18728 14.5204 L 4.24428 13.7564 L 14.4413 3.56138 C 14.4878 3.51494 14.5248 3.45976 14.55 3.39902 C 14.5752 3.33827 14.5882 3.27315 14.5882 3.20738 C 14.5882 3.14162 14.5752 3.0765 14.55 3.01575 C 14.5248 2.95501 14.4878 2.89983 14.4413 2.85338 L 12.8553 1.26838 Z" stroke-linecap="round" />
</g>
</svg>